<?xml version="1.0" encoding="UTF-8" standalone="no"?>
<svg
   inkscape:export-ydpi="96"
   inkscape:export-xdpi="96"
   inkscape:export-filename="PCAB_Debugger_GUI_POS.png"
   sodipodi:docname="PCAB_Debugger_GUI_POS.svg"
   inkscape:version="1.3.2 (091e20e, 2023-11-25, custom)"
   id="svg8"
   version="1.1"
   viewBox="0 0 500 500"
   height="500"
   width="500"
   xml:space="preserve"
   xmlns:inkscape="http://www.inkscape.org/namespaces/inkscape"
   xmlns:sodipodi="http://sodipodi.sourceforge.net/DTD/sodipodi-0.dtd"
   xmlns="http://www.w3.org/2000/svg"
   xmlns:svg="http://www.w3.org/2000/svg"
   xmlns:rdf="http://www.w3.org/1999/02/22-rdf-syntax-ns#"
   xmlns:cc="http://creativecommons.org/ns#"
   xmlns:dc="http://purl.org/dc/elements/1.1/"><defs
     id="defs2" /><sodipodi:namedview
     id="base"
     pagecolor="#ffffff"
     bordercolor="#666666"
     borderopacity="1.0"
     inkscape:pageopacity="0.0"
     inkscape:pageshadow="2"
     inkscape:zoom="0.93829922"
     inkscape:cx="455.61159"
     inkscape:cy="272.3012"
     inkscape:document-units="px"
     inkscape:current-layer="svg8"
     inkscape:document-rotation="0"
     showgrid="false"
     units="px"
     inkscape:window-width="1920"
     inkscape:window-height="1017"
     inkscape:window-x="1912"
     inkscape:window-y="1072"
     inkscape:window-maximized="1"
     inkscape:showpageshadow="2"
     inkscape:pagecheckerboard="0"
     inkscape:deskcolor="#d1d1d1" /><metadata
     id="metadata5"><rdf:RDF><cc:Work
         rdf:about=""><dc:format>image/svg+xml</dc:format><dc:type
           rdf:resource="http://purl.org/dc/dcmitype/StillImage" /><dc:title /></cc:Work></rdf:RDF></metadata><g
     inkscape:label="レイヤー 2"
     id="layer2-6"
     transform="matrix(1.2500017,0,0,1.2500017,-125.00017,-187.5004)"
     style="display:inline"><g
       style="opacity:1;fill:#b9e4ed;fill-opacity:1"
       id="g1"
       transform="matrix(0.78124909,0,0,0.77793779,100.00064,166.23265)"><g
         id="g2"
         style="fill:#b9e4ed;fill-opacity:1">
	<path
   class="st0"
   d="M 423.9,151.41 131.154,245.043 64.712,209.5 l -33.449,12.668 -13.199,4.93 0.05,0.051 -0.164,0.062 26.152,27.133 12.676,13.262 -49.151,12.756 c -4.786,1.45 -7.778,5.442 -7.622,10.164 0.266,7.973 9.305,14.965 17.527,16.875 8.59,1.996 121.145,14.293 125.246,14.934 l 1.664,0.258 68.734,-19.473 39.023,-10.965 -47.826,137.875 58.394,-20.246 c 2.633,-0.863 5.039,-2.222 7.145,-4.038 2.004,-1.73 3.645,-3.805 4.871,-6.153 l 91.414,-139.832 85.254,-24.156 c 42.535,-12.918 59.503,-39.699 60.527,-54.547 1.176,-17.012 -45.492,-40.121 -88.078,-29.648 z"
   style="fill:#b9e4ed;fill-opacity:1"
   id="path1" />
	<path
   class="st0"
   d="m 221.022,187.101 67.426,-20.473 52.656,-15.863 -0.187,-0.07 0.246,-0.078 -165.915,-66.301 c -2.355,-1.219 -4.886,-1.973 -7.523,-2.238 -2.766,-0.282 -5.516,-0.012 -8.168,0.797 l -36.828,10.504 -22.512,6.316 0.102,0.074 -0.195,0.054 z"
   style="fill:#b9e4ed;fill-opacity:1"
   id="path2" />
</g></g></g><g
     inkscape:groupmode="layer"
     id="layer3"
     inkscape:label="レイヤー 3"
     transform="matrix(0.51961973,0,0,0.51961973,234.94509,248.38015)"
     style="display:inline"><path
       style="fill:#8b0097;fill-opacity:1;stroke:none;stroke-width:1.20319"
       d="M 68.792309,443.7558 C 61.436428,421.4909 42.639401,364.82866 27.021149,317.83974 L -1.3757032,232.40533 -34.31349,232.29361 -67.251276,232.18189 v -29.0246 -29.02462 h 53.641249 53.641252 l 3.889344,12.22089 c 6.545736,20.56771 27.271752,83.78088 27.578076,84.11158 0.254208,0.27444 28.257984,-120.81976 74.401435,-321.727399 8.18277,-35.62761 14.94953,-64.849801 15.03726,-64.938201 0.1743,-0.17566 34.59079,121.2760111 63.65925,224.64583 l 18.34907,65.25084 22.25829,0.10091 22.25829,0.10093 1.94896,-3.11637 c 2.5522,-4.08089 9.82496,-11.71471 14.14673,-14.849 16.27634,-11.8042 37.60166,-14.18472 55.99574,-6.25075 12.41453,5.35482 22.43767,14.74991 28.50515,26.71905 4.70096,9.27345 6.36437,16.26657 6.36437,26.75627 0,5.92591 -0.17752,8.00709 -1.00211,11.74896 -5.12415,23.25248 -22.13242,40.32859 -45.10752,45.28745 -5.57233,1.20271 -18.27186,1.09861 -23.64489,-0.1938 -8.23893,-1.98178 -15.44024,-5.34111 -21.79657,-10.16786 -4.37471,-3.32196 -10.9652,-10.32471 -13.4609,-14.30288 l -1.94896,-3.1067 -43.81837,-0.0108 -43.81834,-0.0108 -0.44943,-1.41849 c -2.22633,-7.0269 -9.38541,-31.84614 -20.01756,-69.3972 -6.98372,-24.66547 -12.81276,-44.8463 -12.95339,-44.8463 -0.33234,0 -59.17473,257.321 -73.083485,319.59807 -5.883996,26.3459 -10.80096,47.9015 -10.926588,47.9015 -0.12564,0 -6.246876,-18.2167 -13.602768,-40.4817 z M 337.05282,348.78133 v -29.08934 l 1.19103,-9.2e-4 c 0.65508,-9.2e-4 3.91961,-0.20421 7.25453,-0.45163 29.11591,-2.16016 54.25621,-13.44842 73.83807,-33.15404 17.09183,-17.19988 27.86067,-39.2826 31.92657,-65.46906 1.1164,-7.1902 1.1164,-27.72661 0,-34.91681 -5.57163,-35.8841 -23.94834,-64.36887 -52.98443,-82.12839 -15.61835,-9.552759 -33.27351,-15.053949 -52.99677,-16.513369 -3.21581,-0.23795 -6.38289,-0.43312 -7.03797,-0.43369 l -1.19103,-0.001 v -29.08958 -29.08935 l 6.60486,0.30147 c 43.74072,1.9965 83.16463,18.95538 113.74585,48.92977 41.94081,41.108559 60.24944,98.975779 49.82087,157.466429 -4.00301,22.45165 -13.31802,45.62438 -26.0927,64.91013 -18.08918,27.30897 -43.98111,49.3756 -73.24463,62.42334 -20.71794,9.23753 -41.24167,14.06201 -64.22939,15.09831 l -6.60486,0.29775 z"
       id="path6" /></g><g
     inkscape:label="レイヤー 1"
     inkscape:groupmode="layer"
     id="layer1"
     style="display:inline"><text
       xml:space="preserve"
       style="font-style:normal;font-weight:normal;font-size:109.091px;line-height:1.65;font-family:sans-serif;fill:#000000;fill-opacity:1;stroke:#b30923;stroke-width:5.68182;stroke-miterlimit:4;stroke-dasharray:none;stroke-opacity:1"
       x="1.0298288"
       y="84.659164"
       id="text1748"><tspan
         sodipodi:role="line"
         id="tspan1746"
         x="1.0298288"
         y="84.659164"
         style="font-style:italic;font-variant:normal;font-weight:bold;font-stretch:normal;font-size:109.091px;font-family:'Meiryo UI';-inkscape-font-specification:'Meiryo UI Bold Italic';stroke:#b30923;stroke-width:5.68182;stroke-miterlimit:4;stroke-dasharray:none;stroke-opacity:1">PCAB</tspan></text></g><style
     type="text/css"
     id="style1">
	.st0{fill:#374149;}
</style></svg>
