<?xml version="1.0" encoding="UTF-8" standalone="no"?>
<svg
   inkscape:export-ydpi="96"
   inkscape:export-xdpi="96"
   inkscape:export-filename="PCAB_Debugger_ACS.png"
   sodipodi:docname="PCAB_Debugger_ACS.svg"
   inkscape:version="1.3.2 (091e20e, 2023-11-25, custom)"
   id="svg8"
   version="1.1"
   viewBox="0 0 500 500"
   height="500"
   width="500"
   xml:space="preserve"
   xmlns:inkscape="http://www.inkscape.org/namespaces/inkscape"
   xmlns:sodipodi="http://sodipodi.sourceforge.net/DTD/sodipodi-0.dtd"
   xmlns="http://www.w3.org/2000/svg"
   xmlns:svg="http://www.w3.org/2000/svg"
   xmlns:rdf="http://www.w3.org/1999/02/22-rdf-syntax-ns#"
   xmlns:cc="http://creativecommons.org/ns#"
   xmlns:dc="http://purl.org/dc/elements/1.1/"><defs
     id="defs2" /><sodipodi:namedview
     id="base"
     pagecolor="#ffffff"
     bordercolor="#666666"
     borderopacity="1.0"
     inkscape:pageopacity="0.0"
     inkscape:pageshadow="2"
     inkscape:zoom="0.93829922"
     inkscape:cx="485.45282"
     inkscape:cy="273.36695"
     inkscape:document-units="px"
     inkscape:current-layer="layer2"
     inkscape:document-rotation="0"
     showgrid="false"
     units="px"
     inkscape:window-width="1920"
     inkscape:window-height="1017"
     inkscape:window-x="1912"
     inkscape:window-y="1072"
     inkscape:window-maximized="1"
     inkscape:showpageshadow="2"
     inkscape:pagecheckerboard="0"
     inkscape:deskcolor="#d1d1d1" /><metadata
     id="metadata5"><rdf:RDF><cc:Work
         rdf:about=""><dc:format>image/svg+xml</dc:format><dc:type
           rdf:resource="http://purl.org/dc/dcmitype/StillImage" /><dc:title /></cc:Work></rdf:RDF></metadata><g
     inkscape:label="レイヤー 1"
     inkscape:groupmode="layer"
     id="layer1"
     style="display:inline"
     sodipodi:insensitive="true"><rect
       y="61.46212"
       x="61.46204"
       height="365.71225"
       width="365.71185"
       id="rect1404"
       style="opacity:1;fill:#008400;fill-opacity:1;stroke:#008400;stroke-width:32.015;stroke-linecap:round;stroke-linejoin:bevel;stroke-miterlimit:4;stroke-dasharray:none;stroke-opacity:1;paint-order:stroke fill markers" /><rect
       transform="matrix(-0.00179309,0.99999839,-0.99999812,-0.00193791,0,0)"
       y="-148.38573"
       x="62.777309"
       height="85.278206"
       width="53.193253"
       id="rect1406"
       style="opacity:1;fill:#ff8100;fill-opacity:0.997813;stroke:#ffffff;stroke-width:0;stroke-linecap:round;stroke-linejoin:bevel;stroke-miterlimit:4;stroke-dasharray:none;stroke-opacity:1;paint-order:stroke fill markers" /><rect
       style="opacity:1;fill:#ff8100;fill-opacity:0.997813;stroke:#ffffff;stroke-width:0;stroke-linecap:round;stroke-linejoin:bevel;stroke-miterlimit:4;stroke-dasharray:none;stroke-opacity:1;paint-order:stroke fill markers"
       id="rect1406-0"
       width="53.193253"
       height="85.278206"
       x="169.34924"
       y="-223.27867"
       transform="matrix(-0.00179309,0.99999839,-0.99999812,-0.00193791,0,0)" /><rect
       style="opacity:1;fill:#ff8100;fill-opacity:0.997813;stroke:#ffffff;stroke-width:0;stroke-linecap:round;stroke-linejoin:bevel;stroke-miterlimit:4;stroke-dasharray:none;stroke-opacity:1;paint-order:stroke fill markers"
       id="rect1406-2"
       width="85.109093"
       height="53.299427"
       x="62.876038"
       y="-223.02135"
       transform="matrix(-7.0042465e-4,0.99999975,-0.99998769,-0.004961,0,0)" /><rect
       transform="matrix(-7.0042465e-4,0.99999975,-0.99998769,-0.004961,0,0)"
       y="-116.35541"
       x="137.28856"
       height="53.299427"
       width="85.109093"
       id="rect1406-2-7"
       style="opacity:1;fill:#ff8100;fill-opacity:0.997813;stroke:#ffffff;stroke-width:0;stroke-linecap:round;stroke-linejoin:bevel;stroke-miterlimit:4;stroke-dasharray:none;stroke-opacity:1;paint-order:stroke fill markers" /><rect
       style="opacity:1;fill:#ff8100;fill-opacity:0.997813;stroke:#ffffff;stroke-width:0;stroke-linecap:round;stroke-linejoin:bevel;stroke-miterlimit:4;stroke-dasharray:none;stroke-opacity:1;paint-order:stroke fill markers"
       id="rect1406-01"
       width="53.193253"
       height="85.278206"
       x="265.53897"
       y="-148.7493"
       transform="matrix(-0.00179309,0.99999839,-0.99999812,-0.00193791,0,0)" /><rect
       transform="matrix(-0.00179309,0.99999839,-0.99999812,-0.00193791,0,0)"
       y="-223.64226"
       x="372.11084"
       height="85.278206"
       width="53.193253"
       id="rect1406-0-5"
       style="opacity:1;fill:#ff8100;fill-opacity:0.997813;stroke:#ffffff;stroke-width:0;stroke-linecap:round;stroke-linejoin:bevel;stroke-miterlimit:4;stroke-dasharray:none;stroke-opacity:1;paint-order:stroke fill markers" /><rect
       transform="matrix(-7.0042465e-4,0.99999975,-0.99998769,-0.004961,0,0)"
       y="-223.16341"
       x="265.63745"
       height="53.299427"
       width="85.109093"
       id="rect1406-2-8"
       style="opacity:1;fill:#ff8100;fill-opacity:0.997813;stroke:#ffffff;stroke-width:0;stroke-linecap:round;stroke-linejoin:bevel;stroke-miterlimit:4;stroke-dasharray:none;stroke-opacity:1;paint-order:stroke fill markers" /><rect
       style="opacity:1;fill:#ff8100;fill-opacity:0.997813;stroke:#ffffff;stroke-width:0;stroke-linecap:round;stroke-linejoin:bevel;stroke-miterlimit:4;stroke-dasharray:none;stroke-opacity:1;paint-order:stroke fill markers"
       id="rect1406-8"
       width="53.193253"
       height="85.278206"
       x="62.384403"
       y="-351.14728"
       transform="matrix(-0.00179309,0.99999839,-0.99999812,-0.00193791,0,0)" /><rect
       transform="matrix(-0.00179309,0.99999839,-0.99999812,-0.00193791,0,0)"
       y="-426.04022"
       x="168.95627"
       height="85.278206"
       width="53.193253"
       id="rect1406-0-7"
       style="opacity:1;fill:#ff8100;fill-opacity:0.997813;stroke:#ffffff;stroke-width:0;stroke-linecap:round;stroke-linejoin:bevel;stroke-miterlimit:4;stroke-dasharray:none;stroke-opacity:1;paint-order:stroke fill markers" /><rect
       transform="matrix(-7.0042465e-4,0.99999975,-0.99998769,-0.004961,0,0)"
       y="-425.7851"
       x="61.870155"
       height="53.299427"
       width="85.109093"
       id="rect1406-2-4"
       style="opacity:1;fill:#ff8100;fill-opacity:0.997813;stroke:#ffffff;stroke-width:0;stroke-linecap:round;stroke-linejoin:bevel;stroke-miterlimit:4;stroke-dasharray:none;stroke-opacity:1;paint-order:stroke fill markers" /><rect
       style="opacity:1;fill:#ff8100;fill-opacity:0.997813;stroke:#ffffff;stroke-width:0;stroke-linecap:round;stroke-linejoin:bevel;stroke-miterlimit:4;stroke-dasharray:none;stroke-opacity:1;paint-order:stroke fill markers"
       id="rect1406-2-7-6"
       width="85.109093"
       height="53.299427"
       x="136.28264"
       y="-319.11914"
       transform="matrix(-7.0042465e-4,0.99999975,-0.99998769,-0.004961,0,0)" /><rect
       transform="matrix(-0.00179309,0.99999839,-0.99999812,-0.00193791,0,0)"
       y="-351.51086"
       x="265.14606"
       height="85.278206"
       width="53.193253"
       id="rect1406-01-6"
       style="opacity:1;fill:#ff8100;fill-opacity:0.997813;stroke:#ffffff;stroke-width:0;stroke-linecap:round;stroke-linejoin:bevel;stroke-miterlimit:4;stroke-dasharray:none;stroke-opacity:1;paint-order:stroke fill markers" /><rect
       style="opacity:1;fill:#ff8100;fill-opacity:0.997813;stroke:#ffffff;stroke-width:0;stroke-linecap:round;stroke-linejoin:bevel;stroke-miterlimit:4;stroke-dasharray:none;stroke-opacity:1;paint-order:stroke fill markers"
       id="rect1406-0-5-8"
       width="53.193253"
       height="85.278206"
       x="371.7179"
       y="-426.40381"
       transform="matrix(-0.00179309,0.99999839,-0.99999812,-0.00193791,0,0)" /><rect
       style="opacity:1;fill:#ff8100;fill-opacity:0.997813;stroke:#ffffff;stroke-width:0;stroke-linecap:round;stroke-linejoin:bevel;stroke-miterlimit:4;stroke-dasharray:none;stroke-opacity:1;paint-order:stroke fill markers"
       id="rect1406-2-8-8"
       width="85.109093"
       height="53.299427"
       x="264.63153"
       y="-425.92709"
       transform="matrix(-7.0042465e-4,0.99999975,-0.99998769,-0.004961,0,0)" /><rect
       transform="matrix(-7.0042465e-4,0.99999975,-0.99998769,-0.004961,0,0)"
       y="-319.26117"
       x="339.04401"
       height="53.299427"
       width="85.109093"
       id="rect1406-2-7-1-5"
       style="opacity:1;fill:#ff8100;fill-opacity:0.997813;stroke:#ffffff;stroke-width:0;stroke-linecap:round;stroke-linejoin:bevel;stroke-miterlimit:4;stroke-dasharray:none;stroke-opacity:1;paint-order:stroke fill markers" /><rect
       transform="matrix(-0.00224136,0.99999749,-0.9999988,-0.00155032,0,0)"
       y="-255.52478"
       x="238.61986"
       height="21.319534"
       width="10.63866"
       id="rect1406-2-7-6-6"
       style="opacity:1;fill:#1d00ff;fill-opacity:0.997813;stroke:#ffffff;stroke-width:0;stroke-linecap:round;stroke-linejoin:bevel;stroke-miterlimit:4;stroke-dasharray:none;stroke-opacity:1;paint-order:stroke fill markers" /><rect
       style="opacity:1;fill:#ff0f00;fill-opacity:0.997813;stroke:#ffffff;stroke-width:0;stroke-linecap:round;stroke-linejoin:bevel;stroke-miterlimit:4;stroke-dasharray:none;stroke-opacity:1;paint-order:stroke fill markers"
       id="rect1406-2-7-6-6-6"
       width="21.277271"
       height="10.659959"
       x="231.27026"
       y="-393.85858"
       transform="matrix(-5.6033978e-4,0.99999984,-0.99998077,-0.00620118,0,0)" /><rect
       transform="matrix(-5.6033978e-4,0.99999984,-0.99998077,-0.00620118,0,0)"
       y="-105.71879"
       x="233.05707"
       height="10.659959"
       width="21.277271"
       id="rect1406-2-7-6-6-6-5"
       style="opacity:1;fill:#ff0f00;fill-opacity:0.997813;stroke:#ffffff;stroke-width:0;stroke-linecap:round;stroke-linejoin:bevel;stroke-miterlimit:4;stroke-dasharray:none;stroke-opacity:1;paint-order:stroke fill markers" /><rect
       inkscape:transform-center-y="-21.714036"
       inkscape:transform-center-x="36.190043"
       transform="matrix(0.70671014,0.7075032,-0.71147776,0.70270862,0,0)"
       y="198.19881"
       x="329.47195"
       height="10.659963"
       width="21.277262"
       id="rect1406-2-7-6-6-6-0"
       style="opacity:1;fill:#ff0f00;fill-opacity:0.997813;stroke:#ffffff;stroke-width:0;stroke-linecap:round;stroke-linejoin:bevel;stroke-miterlimit:4;stroke-dasharray:none;stroke-opacity:1;paint-order:stroke fill markers" /><text
       xml:space="preserve"
       style="font-style:normal;font-weight:normal;font-size:109.091px;line-height:1.65;font-family:sans-serif;fill:#000000;fill-opacity:1;stroke:#b30923;stroke-width:5.68182;stroke-miterlimit:4;stroke-dasharray:none;stroke-opacity:1"
       x="1.0298288"
       y="84.659164"
       id="text1748"><tspan
         sodipodi:role="line"
         id="tspan1746"
         x="1.0298288"
         y="84.659164"
         style="font-style:italic;font-variant:normal;font-weight:bold;font-stretch:normal;font-size:109.091px;font-family:'Meiryo UI';-inkscape-font-specification:'Meiryo UI Bold Italic';stroke:#b30923;stroke-width:5.68182;stroke-miterlimit:4;stroke-dasharray:none;stroke-opacity:1">PCAB</tspan></text></g><g
     inkscape:label="レイヤー 2"
     id="layer2"
     inkscape:groupmode="layer"><g
       style="opacity:1;fill:#b9e4ed;fill-opacity:1"
       id="g1"
       transform="matrix(0.78124909,0,0,0.77793779,100.00064,166.23265)"><g
         id="g2"
         style="fill:#b9e4ed;fill-opacity:1">
	<path
   class="st0"
   d="M 423.9,151.41 131.154,245.043 64.712,209.5 l -33.449,12.668 -13.199,4.93 0.05,0.051 -0.164,0.062 26.152,27.133 12.676,13.262 -49.151,12.756 c -4.786,1.45 -7.778,5.442 -7.622,10.164 0.266,7.973 9.305,14.965 17.527,16.875 8.59,1.996 121.145,14.293 125.246,14.934 l 1.664,0.258 68.734,-19.473 39.023,-10.965 -47.826,137.875 58.394,-20.246 c 2.633,-0.863 5.039,-2.222 7.145,-4.038 2.004,-1.73 3.645,-3.805 4.871,-6.153 l 91.414,-139.832 85.254,-24.156 c 42.535,-12.918 59.503,-39.699 60.527,-54.547 1.176,-17.012 -45.492,-40.121 -88.078,-29.648 z"
   style="fill:#b9e4ed;fill-opacity:1"
   id="path1" />
	<path
   class="st0"
   d="m 221.022,187.101 67.426,-20.473 52.656,-15.863 -0.187,-0.07 0.246,-0.078 -165.915,-66.301 c -2.355,-1.219 -4.886,-1.973 -7.523,-2.238 -2.766,-0.282 -5.516,-0.012 -8.168,0.797 l -36.828,10.504 -22.512,6.316 0.102,0.074 -0.195,0.054 z"
   style="fill:#b9e4ed;fill-opacity:1"
   id="path2" />
</g></g></g><style
     type="text/css"
     id="style1">
	.st0{fill:#374149;}
</style></svg>
